<svg id="Capa_1" enable-background="new 0 0 510 510" height="512" viewBox="0 0 510 510" width="512" xmlns="http://www.w3.org/2000/svg"><g><g fill="#69f"><path d="m396.455 89.004c-25.916 0-47 21.084-47 47v47h94v-47c0-25.916-21.084-47-47-47z"/><path d="m381.136 8.004h30v48h-30z"/><path d="m436.136 24.034h48v30h-48z" transform="matrix(.707 -.707 .707 .707 107.17 336.798)"/><path d="m317.136 15.033h30v48h-30z" transform="matrix(.707 -.707 .707 .707 69.681 246.29)"/></g><path d="m331.74 224.004-13.74 135h-318v-270h318v64z" fill="#e62e6b"/><path d="m331.74 224.004-13.74 135h-49.55v-270h49.55v64z" fill="#b32453"/><path d="m510 292.344v170.66h-74.34v-15h-73.32v15h-362.34v-134h318v-125.6l125.45-50.4c.374 2.169 7.491 43.472 7.82 45.37l-35.61 44.5c57.316 53.65 51.504 47.784 51.79 49.47z" fill="#f66"/><path d="m510 292.344v170.66h-74.34v-15h-73.32v15h-93.89v-134h49.55v-176h125.45c.374 2.169 7.491 43.472 7.82 45.37l-35.61 44.5c57.316 53.65 51.504 47.784 51.79 49.47z" fill="#e62e6b"/><path d="m352.38 292.374v-94h98.89c.332 1.928 15.864 92.108 16.18 93.97" fill="#d1d9e1"/><path d="m447 345.004h63v30h-63z" fill="#d1d9e1"/><path d="m323.45 304.004c0 41.214-43.775 67.556-80 48.96v47.04h-30v-96c0-30.33 24.67-55 55-55 30.32 0 55 24.67 55 55z" fill="#e5eaee"/><path d="m323.45 304.004c0 30.33-24.68 55-55 55v-110c30.32 0 55 24.67 55 55z" fill="#d1d9e1"/><path d="m191 183.004v-30h-191v30h64v34h-64v30h191v-30h-33v-34zm-63 34h-34v-34h34z" fill="#e5eaee"/><circle cx="399" cy="446.996" fill="#d1d9e1" r="40.745"/><circle cx="111" cy="446.996" fill="#e5eaee" r="43.043"/><path d="m399 501.996c-30.327 0-55-24.673-55-55s24.673-55 55-55 55 24.673 55 55-24.673 55-55 55zm0-80c-13.785 0-25 11.215-25 25s11.215 25 25 25 25-11.215 25-25-11.215-25-25-25z" fill="#5f6c75"/><path d="m111 501.996c-30.327 0-55-24.673-55-55s24.673-55 55-55 55 24.673 55 55-24.673 55-55 55zm0-80c-13.785 0-25 11.215-25 25s11.215 25 25 25 25-11.215 25-25-11.215-25-25-25z" fill="#7e8a95"/></g></svg>